HIERARCHY
ROOT Hips
{
	OFFSET 0.000000 1.471914 24.280096
	CHANNELS 6 Xposition Yposition Zposition Xrotation Yrotation Zrotation
	JOINT Spine
	{
		OFFSET 0.000000 0.900110 1.860670
		CHANNELS 6 Xposition Yposition Zposition Xrotation Yrotation Zrotation
		JOINT Spine1
		{
			OFFSET 0.000000 0.400320 2.270309
			CHANNELS 6 Xposition Yposition Zposition Xrotation Yrotation Zrotation
			JOINT Spine2
			{
				OFFSET 0.000000 0.200920 2.296560
				CHANNELS 6 Xposition Yposition Zposition Xrotation Yrotation Zrotation
				JOINT Spine3
				{
					OFFSET 0.000000 0.000000 2.305330
					CHANNELS 6 Xposition Yposition Zposition Xrotation Yrotation Zrotation
					JOINT Neck
					{
						OFFSET 0.000000 -0.864490 6.051487
						CHANNELS 6 Xposition Yposition Zposition Xrotation Yrotation Zrotation
						JOINT Head
						{
							OFFSET 0.000000 -0.550429 3.121674
							CHANNELS 6 Xposition Yposition Zposition Xrotation Yrotation Zrotation
							End Site
							{
								OFFSET 0.000000 0.000000 3.731750
							}
						}
					}
					JOINT RightShoulder
					{
						OFFSET -0.788280 -1.313800 4.256718
						CHANNELS 6 Xposition Yposition Zposition Xrotation Yrotation Zrotation
						JOINT RightArm
						{
							OFFSET -3.915130 0.000000 0.000000
							CHANNELS 6 Xposition Yposition Zposition Xrotation Yrotation Zrotation
							JOINT RightForeArm
							{
								OFFSET -6.914910 0.000000 0.000000
								CHANNELS 6 Xposition Yposition Zposition Xrotation Yrotation Zrotation
								JOINT RightHand
								{
									OFFSET -6.096219 0.000000 0.000000
									CHANNELS 6 Xposition Yposition Zposition Xrotation Yrotation Zrotation
									JOINT RightHandEnd
									{
										OFFSET -1.749950 0.000000 0.000000
										CHANNELS 6 Xposition Yposition Zposition Xrotation Yrotation Zrotation
										End Site
										{
											OFFSET -1.749950 0.000000 0.000000
										}
									}
									JOINT RightHandThumb1
									{
										OFFSET -0.699980 -1.166630 -0.466648
										CHANNELS 6 Xposition Yposition Zposition Xrotation Yrotation Zrotation
										End Site
										{
											OFFSET -1.690319 -0.452920 0.000000
										}
									}
								}
							}
						}
					}
					JOINT LeftShoulder
					{
						OFFSET 0.788280 -1.313800 4.256718
						CHANNELS 6 Xposition Yposition Zposition Xrotation Yrotation Zrotation
						JOINT LeftArm
						{
							OFFSET 3.915130 0.000000 0.000000
							CHANNELS 6 Xposition Yposition Zposition Xrotation Yrotation Zrotation
							JOINT LeftForeArm
							{
								OFFSET 6.914910 0.000000 0.000000
								CHANNELS 6 Xposition Yposition Zposition Xrotation Yrotation Zrotation
								JOINT LeftHand
								{
									OFFSET 6.096219 0.000000 0.000000
									CHANNELS 6 Xposition Yposition Zposition Xrotation Yrotation Zrotation
									JOINT LeftHandEnd
									{
										OFFSET 1.749950 0.000000 0.000000
										CHANNELS 6 Xposition Yposition Zposition Xrotation Yrotation Zrotation
										End Site
										{
											OFFSET 1.749950 0.000000 0.000000
										}
									}
									JOINT LeftHandThumb1
									{
										OFFSET 0.699980 -1.166630 -0.466648
										CHANNELS 6 Xposition Yposition Zposition Xrotation Yrotation Zrotation
										End Site
										{
											OFFSET 1.690319 -0.452920 0.000000
										}
									}
								}
							}
						}
					}
				}
			}
		}
	}
	JOINT RightUpLeg
	{
		OFFSET -2.338570 -0.252550 -0.551512
		CHANNELS 6 Xposition Yposition Zposition Xrotation Yrotation Zrotation
		JOINT RightLeg
		{
			OFFSET 0.000000 0.000000 -10.744959
			CHANNELS 6 Xposition Yposition Zposition Xrotation Yrotation Zrotation
			JOINT RightFoot
			{
				OFFSET 0.000000 -0.000001 -10.930849
				CHANNELS 6 Xposition Yposition Zposition Xrotation Yrotation Zrotation
				JOINT RightToeBase
				{
					OFFSET 0.000000 -4.087269 -1.487650
					CHANNELS 6 Xposition Yposition Zposition Xrotation Yrotation Zrotation
					End Site
					{
						OFFSET 0.000000 -1.891870 0.000000
					}
				}
			}
		}
	}
	JOINT LeftUpLeg
	{
		OFFSET 2.338570 -0.252550 -0.551512
		CHANNELS 6 Xposition Yposition Zposition Xrotation Yrotation Zrotation
		JOINT LeftLeg
		{
			OFFSET 0.000000 0.000000 -10.744959
			CHANNELS 6 Xposition Yposition Zposition Xrotation Yrotation Zrotation
			JOINT LeftFoot
			{
				OFFSET 0.000000 -0.000001 -10.930849
				CHANNELS 6 Xposition Yposition Zposition Xrotation Yrotation Zrotation
				JOINT LeftToeBase
				{
					OFFSET 0.000000 -4.087269 -1.487650
					CHANNELS 6 Xposition Yposition Zposition Xrotation Yrotation Zrotation
					End Site
					{
						OFFSET 0.000000 -1.891870 0.000000
					}
				}
			}
		}
	}
}
MOTION
Frames: 4
Frame Time: 0.041667
0.000185 26.697826 39.820446 5.891020 25.955827 1.553101 -0.000017 0.900097 1.860695 16.572286 10.394394 4.460499 0.000007 0.400297 2.270346 -0.000005 -0.000004 0.000001 0.000024 0.200910 2.296551 0.000003 0.000001 0.000000 0.000009 -0.000035 2.305346 0.000014 -0.000004 -3.630725 -0.000009 -0.864462 6.051486 14.285790 2.243236 208.790250 0.000022 -0.550460 3.121685 0.000003 -0.000001 -0.000002 -0.788279 -1.313745 4.256765 -122.799042 44.191129 -37.986790 -3.915098 -0.000001 -0.000019 0.000002 0.000000 0.000003 -6.914890 -0.000010 0.000003 -0.000006 -0.000036 -58.379355 -6.096191 -0.000009 -0.000000 -0.000070 -0.000034 -0.000079 -1.749921 0.000003 0.000011 0.000001 -0.000002 -0.000001 -0.700005 -1.166621 -0.466659 0.000001 -0.000001 -0.000004 0.788279 -1.313780 4.256743 -154.245288 -45.519157 29.667319 3.915176 -0.000010 0.000004 0.000001 0.000001 -0.000001 6.914924 -0.000009 -0.000017 0.000019 -0.000044 15.928600 6.096239 0.000058 -0.000019 -0.000019 0.000034 0.000014 1.749939 0.000014 0.000021 0.000000 -0.000001 -0.000000 0.699944 -1.166591 -0.466662 0.000012 -0.000003 -0.000019 -2.338585 -0.252540 -0.551503 -3.878344 -30.345400 -1.000995 0.000014 -0.000008 -10.744972 13.631208 -1.804003 -3.883272 -0.000023 0.000037 -10.930844 -0.000002 -0.000000 -0.000014 0.000011 -4.087257 -1.487637 0.000000 -0.000000 0.000000 2.338565 -0.252538 -0.551450 -9.523988 -37.411118 -2.564851 0.000007 -0.000017 -10.744931 16.470260 -4.013711 -7.155242 -0.000006 -0.000005 -10.930861 0.000031 0.000003 -0.000011 -0.000018 -4.087217 -1.487653 0.000003 0.000001 0.000003 
0.000214 26.697855 39.820496 5.856536 26.685054 0.690853 -0.000018 0.900088 1.860704 15.437312 10.346453 4.711359 0.000006 0.400309 2.270348 -0.000003 -0.000000 0.000002 0.000030 0.200917 2.296551 0.000003 -0.000003 0.000000 0.000005 -0.000035 2.305350 0.000014 -0.000000 -2.997350 -0.000008 -0.864467 6.051494 14.816574 -0.172311 199.958665 0.000022 -0.550450 3.121693 0.000009 -0.000001 -0.000005 -0.788280 -1.313752 4.256768 -123.487498 41.602450 -36.882263 -3.915101 -0.000002 -0.000023 0.000000 -0.000002 0.000002 -6.914890 -0.000004 0.000003 -0.000003 -0.000039 -60.096239 -6.096195 -0.000014 -0.000003 -0.000070 -0.000034 -0.000083 -1.749920 0.000002 0.000018 0.000004 -0.000003 0.000003 -0.700004 -1.166623 -0.466653 0.000003 -0.000002 -0.000001 0.788272 -1.313789 4.256748 -163.681262 -49.521228 23.666266 3.915173 -0.000009 -0.000000 -0.000001 0.000002 -0.000000 6.914917 -0.000011 -0.000021 0.000020 -0.000044 15.215966 6.096239 0.000059 -0.000011 -0.000019 0.000032 0.000019 1.749939 0.000013 0.000020 0.000002 -0.000000 0.000000 0.699939 -1.166593 -0.466659 0.000015 -0.000002 -0.000020 -2.338588 -0.252548 -0.551495 -3.651974 -31.008492 -1.046114 0.000013 -0.000009 -10.744964 13.794818 -1.233647 -3.643776 -0.000023 0.000036 -10.930842 0.000003 0.000000 -0.000013 0.000011 -4.087260 -1.487640 0.000000 0.000000 -0.000000 2.338563 -0.252545 -0.551443 -7.673004 -37.703604 -2.287705 0.000008 -0.000014 -10.744929 15.411053 -4.390082 -6.250717 -0.000006 -0.000005 -10.930861 0.000031 0.000002 -0.000011 -0.000017 -4.087218 -1.487654 -0.000002 0.000001 0.000002 
0.000183 26.697813 39.820305 5.762640 27.467775 0.764010 -0.000017 0.900092 1.860702 17.277756 8.211981 5.432091 0.000009 0.400302 2.270352 -0.000003 0.000002 0.000000 0.000026 0.200916 2.296551 -0.000002 0.000001 -0.000000 0.000007 -0.000038 2.305346 0.000020 -0.000011 -4.385577 -0.000010 -0.864463 6.051492 11.575350 -1.531617 214.623299 0.000019 -0.550448 3.121685 -0.000001 0.000003 -0.000003 -0.788282 -1.313752 4.256771 -128.032197 44.039246 -33.155541 -3.915099 0.000005 -0.000023 -0.000003 -0.000001 0.000003 -6.914891 -0.000002 -0.000001 -0.000003 -0.000040 -62.215695 -6.096196 -0.000013 -0.000003 -0.000065 -0.000035 -0.000081 -1.749916 0.000001 0.000008 0.000004 -0.000003 0.000002 -0.700000 -1.166622 -0.466664 0.000001 -0.000004 -0.000000 0.788275 -1.313783 4.256748 -144.919675 -44.664533 38.307307 3.915174 -0.000002 -0.000000 0.000004 0.000001 0.000000 6.914919 -0.000014 -0.000017 0.000019 -0.000044 15.293379 6.096239 0.000057 -0.000015 -0.000020 0.000032 0.000018 1.749941 0.000012 0.000020 -0.000001 -0.000000 0.000000 0.699949 -1.166595 -0.466663 0.000013 -0.000003 -0.000020 -2.338582 -0.252546 -0.551505 -2.817052 -32.450369 -0.847081 0.000014 -0.000009 -10.744964 12.425695 -2.013307 -3.459198 -0.000023 0.000035 -10.930850 -0.000002 -0.000000 -0.000014 0.000011 -4.087262 -1.487638 0.000007 -0.000000 -0.000000 2.338567 -0.252544 -0.551449 -7.042306 -39.330244 -2.210435 0.000007 -0.000016 -10.744930 14.313495 -4.109699 -6.060134 -0.000005 -0.000005 -10.930862 0.000034 0.000002 -0.000011 -0.000017 -4.087215 -1.487655 0.000004 0.000003 0.000003 
0.000170 26.697819 39.820358 4.317950 28.058132 2.227649 -0.000013 0.900092 1.860702 17.115544 9.526691 5.790646 0.000007 0.400300 2.270346 -0.000003 -0.000001 -0.000001 0.000027 0.200913 2.296547 0.000001 -0.000006 -0.000001 0.000002 -0.000032 2.305350 0.000013 -0.000000 -2.869915 -0.000006 -0.864470 6.051491 10.732643 -2.022494 207.077703 0.000021 -0.550454 3.121689 0.000010 -0.000002 -0.000002 -0.788278 -1.313755 4.256772 -120.767758 41.854843 -39.182961 -3.915097 -0.000006 -0.000019 0.000001 -0.000001 0.000004 -6.914890 -0.000007 -0.000005 -0.000004 -0.000040 -61.194609 -6.096189 -0.000015 0.000005 -0.000073 -0.000040 -0.000082 -1.749919 -0.000001 0.000011 0.000007 -0.000002 -0.000003 -0.700003 -1.166623 -0.466663 0.000003 -0.000003 -0.000003 0.788281 -1.313791 4.256745 -152.653266 -46.150171 33.208807 3.915173 -0.000010 -0.000000 0.000003 0.000001 -0.000001 6.914915 -0.000011 -0.000020 0.000020 -0.000049 12.454457 6.096243 0.000057 -0.000019 -0.000023 0.000032 0.000020 1.749935 0.000014 0.000016 0.000000 -0.000001 -0.000001 0.699942 -1.166593 -0.466663 0.000017 -0.000003 -0.000021 -2.338580 -0.252544 -0.551498 -1.715570 -32.508856 -0.540083 0.000013 -0.000007 -10.744966 13.438298 -3.009797 -3.519325 -0.000023 0.000041 -10.930843 -0.000003 -0.000000 -0.000014 0.000011 -4.087257 -1.487635 0.000001 -0.000000 0.000000 2.338570 -0.252541 -0.551446 -9.217372 -38.715240 -3.017268 0.000008 -0.000017 -10.744927 15.621213 -6.615351 -6.231992 -0.000005 -0.000006 -10.930861 0.000029 0.000003 -0.000011 -0.000018 -4.087214 -1.487657 -0.000002 0.000000 0.000003 
